<svg xmlns="http://www.w3.org/2000/svg" viewBox="0 0 38.13 27.7"><defs><style>.cls-1{fill:#7000cb;}.cls-2{fill:#06f;stroke-width:1.1px;}.cls-2,.cls-3{stroke:#7000cb;}.cls-2,.cls-3,.cls-5{stroke-miterlimit:10;}.cls-3{fill:#f58220;stroke-width:1.59px;}.cls-4{fill:#fff;}.cls-5{fill:none;stroke:#ccc;stroke-width:0.16px;}</style></defs><title>Asset 28</title><g id="Layer_2" data-name="Layer 2"><g id="Layer_1-2" data-name="Layer 1"><path class="cls-1" d="M6.8,0H11l5.3,16L21.69,0h4.24l2,12.58H23.81L23.1,8.43,18.25,22.87H14.41L9.6,8.43,7.08,22.87H2.84Z"/><rect class="cls-2" x="0.55" y="18.58" width="8.57" height="8.57" rx="4.29" ry="4.29"/><rect class="cls-3" x="23.21" y="9.8" width="14.12" height="14.12" rx="7.06" ry="7.06"/><path class="cls-4" d="M29.26,14.51l3.55,1.86a.56.56,0,0,1,0,1l-3.55,1.86a.55.55,0,0,1-.81-.49V15A.56.56,0,0,1,29.26,14.51Z"/><polyline class="cls-5" points="5.83 18.02 8.38 2.36 9.88 2.36 15.41 20.9 16.91 20.9 23.21 2.36 24.79 2.36 26.4 10.96"/></g></g></svg>