<svg xmlns="http://www.w3.org/2000/svg" viewBox="0 0 53.27 29.18"><defs><style>.cls-1{fill:#fff;}.cls-2{fill:#ccc;}</style></defs><title>AirConditioner</title><g id="Layer_2" data-name="Layer 2"><g id="Layer_1-2" data-name="Layer 1"><rect class="cls-1" width="53.27" height="20.75" rx="3.25" ry="3.25"/><path class="cls-2" d="M47.64,4.72h-4a.47.47,0,0,0-.48.48.48.48,0,0,0,.48.48h4a.49.49,0,0,0,.48-.48.48.48,0,0,0-.48-.48"/><path class="cls-2" d="M47.89,15.63H5.38a.19.19,0,0,0-.19.19.2.2,0,0,0,.19.19H47.89a.19.19,0,0,0,.18-.19.18.18,0,0,0-.18-.19"/><path class="cls-2" d="M6.25,17.55H47a.19.19,0,1,0,0-.37H6.25a.18.18,0,0,0-.19.19.18.18,0,0,0,.19.18"/><path class="cls-1" d="M34.55,23.56v3.23a2.39,2.39,0,0,0,2.39,2.39h1.63a.19.19,0,0,0,.19-.19.18.18,0,0,0-.19-.19H36.94a2,2,0,0,1-1.42-.59,2,2,0,0,1-.59-1.42V23.56a.19.19,0,0,0-.38,0Z"/><path class="cls-1" d="M20.26,23.56v3.23a2,2,0,0,1-2,2H16.61a.19.19,0,0,0-.19.19.2.2,0,0,0,.19.19h1.63a2.39,2.39,0,0,0,2.39-2.39V23.56a.18.18,0,0,0-.18-.19.18.18,0,0,0-.19.19Z"/></g></g></svg>