<svg xmlns="http://www.w3.org/2000/svg" viewBox="0 0 29.79 37.25"><defs><style>.cls-1{fill:#06f;}.cls-2{fill:#fff;opacity:0.6;}.cls-3{fill:none;stroke:#06f;stroke-linecap:round;stroke-miterlimit:10;stroke-width:0.69px;}.cls-4{fill:#201547;}</style></defs><title>Asset 2</title><g id="Layer_2" data-name="Layer 2"><g id="Layer_1-2" data-name="Layer 1"><circle class="cls-1" cx="14.9" cy="20.11" r="9.15"/><circle class="cls-2" cx="14.9" cy="3.37" r="3.37"/><line class="cls-3" x1="14.9" y1="12.68" x2="14.9" y2="8.02"/><circle class="cls-2" cx="3.37" cy="33.88" r="3.37"/><line class="cls-3" x1="9.95" y1="27.29" x2="6.66" y2="30.59"/><circle class="cls-2" cx="26.42" cy="33.88" r="3.37"/><line class="cls-3" x1="19.84" y1="27.29" x2="23.14" y2="30.59"/><path class="cls-4" d="M10.44,21.74V17.46H11l1.37,2.17A11.07,11.07,0,0,1,13.18,21h0c0-.57-.06-1.09-.06-1.76V17.46h.52v4.28h-.56l-1.36-2.17a12.83,12.83,0,0,1-.8-1.43h0c0,.54.05,1.05.05,1.76v1.83Z"/><path class="cls-4" d="M15.17,17.46v1.79h2.07V17.46h.55v4.28h-.55v-2H15.17v2h-.56V17.46Z"/><path class="cls-4" d="M18.52,23.48a1,1,0,0,0,.53.15c.42,0,.55-.26.55-.46s-.31-.48-.63-.48h-.18v-.25H19c.24,0,.54-.12.54-.41s-.12-.36-.42-.36a.86.86,0,0,0-.49.16l-.08-.24a1.18,1.18,0,0,1,.63-.18c.47,0,.69.28.69.57a.6.6,0,0,1-.45.57h0a.63.63,0,0,1,.54.62c0,.38-.3.72-.88.72a1.18,1.18,0,0,1-.62-.17Z"/></g></g></svg>