<svg xmlns="http://www.w3.org/2000/svg" viewBox="0 0 73.86 75.77"><defs><style>.cls-1{fill:#06f;}.cls-2{fill:#5f9df9;}.cls-3{fill:none;stroke:#fff;stroke-linecap:round;stroke-miterlimit:10;stroke-width:3px;}</style></defs><title>Asset 17</title><g id="Layer_2" data-name="Layer 2"><g id="Layer_1-2" data-name="Layer 1"><path class="cls-1" d="M47.11,38.65a10.18,10.18,0,0,1-20.36,0c0-5.62,10.18-18.34,10.18-18.34S47.11,33,47.11,38.65Z"/><path class="cls-2" d="M36.93,48.83A10.18,10.18,0,0,1,26.75,38.65c0-5.62,10.18-18.34,10.18-18.34A39.67,39.67,0,0,1,36.93,48.83Z"/><path class="cls-1" d="M34.71,70.89a4.88,4.88,0,0,1-9.76,0c0-2.7,4.88-8.8,4.88-8.8S34.71,68.19,34.71,70.89Z"/><path class="cls-2" d="M29.83,75.77A4.89,4.89,0,0,1,25,70.89c0-2.7,4.88-8.8,4.88-8.8A19.05,19.05,0,0,1,29.83,75.77Z"/><path class="cls-1" d="M47.11,59.12a3,3,0,0,1-6,0c0-1.64,3-5.36,3-5.36S47.11,57.48,47.11,59.12Z"/><path class="cls-2" d="M44.13,62.09a3,3,0,0,1-3-3c0-1.64,3-5.36,3-5.36A11.53,11.53,0,0,1,44.13,62.09Z"/><path class="cls-3" d="M19.22,54.9a17.72,17.72,0,1,1,0-35.43v-.25a17.72,17.72,0,1,1,35.43,0v.25a17.72,17.72,0,0,1,0,35.43"/></g></g></svg>