<svg xmlns="http://www.w3.org/2000/svg" viewBox="0 0 21.89 30.42"><defs><style>.cls-1{fill:#fff;}</style></defs><title>white bulb</title><g id="Layer_2" data-name="Layer 2"><g id="Layer_1-2" data-name="Layer 1"><path class="cls-1" d="M21.89,10.94A10.95,10.95,0,1,1,10.94,0,10.95,10.95,0,0,1,21.89,10.94ZM13.57,21.42V12.33a.64.64,0,0,1,.64-.64h.17a.64.64,0,0,1,.64.64.64.64,0,0,1-.64.64H7.51a.64.64,0,0,1-.64-.64.64.64,0,0,1,.64-.64h.17a.64.64,0,0,1,.64.64v9.09h.44V12.33a1.07,1.07,0,0,0-1.08-1.07H7.51a1.08,1.08,0,1,0,0,2.15h6.87a1.08,1.08,0,0,0,0-2.15h-.17a1.07,1.07,0,0,0-1.08,1.07v9.09Z"/><path class="cls-1" d="M10.94,30.42h0A2.4,2.4,0,0,1,8.54,28V26.26A.43.43,0,0,1,9,25.83h3.94a.44.44,0,0,1,.44.43V28A2.41,2.41,0,0,1,10.94,30.42Z"/><path class="cls-1" d="M12.8,25.39H9.08a.55.55,0,0,1,0-1.1H12.8a.55.55,0,0,1,0,1.1Z"/><path class="cls-1" d="M12.8,23.86H9.08a.55.55,0,0,1,0-1.1H12.8a.55.55,0,1,1,0,1.1Z"/></g></g></svg>