<svg xmlns="http://www.w3.org/2000/svg" xmlns:xlink="http://www.w3.org/1999/xlink" viewBox="0 0 45.45 45.45"><defs><style>.cls-1,.cls-10,.cls-6,.cls-7,.cls-8,.cls-9{fill:none;}.cls-2{fill:#112530;}.cls-3{fill:#5f9df9;}.cls-4{clip-path:url(#clip-path);}.cls-5{fill:#06f;}.cls-10,.cls-6,.cls-7,.cls-8,.cls-9{stroke:#fff;stroke-miterlimit:10;}.cls-6{stroke-width:0.28px;}.cls-7{stroke-width:0.57px;}.cls-8{stroke-width:0.17px;}.cls-9{stroke-width:0.18px;}.cls-10{stroke-width:0.14px;}.cls-11{fill:#fff;}.cls-12{fill:#4077ad;}.cls-13{fill:#4e8dd8;}.cls-14{clip-path:url(#clip-path-2);}</style><clipPath id="clip-path"><circle class="cls-1" cx="20.95" cy="20.54" r="7.34"/></clipPath><clipPath id="clip-path-2"><rect class="cls-1" x="23.62" y="29.61" width="1.06" height="3.33" rx="0.53" ry="0.53"/></clipPath></defs><title>Asset 22</title><g id="Layer_2" data-name="Layer 2"><g id="Layer_1-2" data-name="Layer 1"><rect class="cls-2" width="45.45" height="45.45" rx="22.73" ry="22.73"/><polygon class="cls-3" points="26.68 16.3 25.54 16.3 25.54 10.71 26.68 11.35 26.68 11.64 26.5 11.64 26.5 11.77 26.68 11.85 26.68 16.3"/><circle class="cls-3" cx="20.95" cy="20.54" r="8.17"/><g class="cls-4"><circle class="cls-5" cx="20.95" cy="20.54" r="7.34"/><line class="cls-6" x1="20.95" y1="13.2" x2="20.95" y2="15.47"/><line class="cls-7" x1="28.29" y1="20.54" x2="26.02" y2="20.54"/><line class="cls-8" x1="14.75" y1="14.33" x2="16.67" y2="16.25"/><line class="cls-7" x1="25.24" y1="24.82" x2="27.16" y2="26.74"/><line class="cls-6" x1="27.16" y1="14.33" x2="25.24" y2="16.25"/><line class="cls-9" x1="12.27" y1="16.78" x2="14.96" y2="17.94"/><line class="cls-7" x1="26.95" y1="23.13" x2="29.64" y2="24.3"/><line class="cls-6" x1="24.72" y1="11.85" x2="23.55" y2="14.54"/><line class="cls-10" x1="18.05" y1="13.8" x2="18.95" y2="15.88"/><line class="cls-6" x1="27.69" y1="17.63" x2="25.61" y2="18.53"/><polygon class="cls-11" points="19.71 20.85 20.95 15.88 22.2 20.85 19.71 20.85"/><circle class="cls-11" cx="20.95" cy="20.85" r="1.24"/></g><path class="cls-12" d="M22.93,33.48a1.93,1.93,0,0,1-.32,1.24V33.48Z"/><path class="cls-12" d="M19.14,33.48a2,2,0,0,0,.31,1.24V33.48Z"/><path class="cls-3" d="M19.45,28.17h3.16a0,0,0,0,1,0,0v7.31A1.58,1.58,0,0,1,21,37.06h0a1.58,1.58,0,0,1-1.58-1.58V28.17a0,0,0,0,1,0,0Z"/><rect class="cls-13" x="19.13" y="29.81" width="3.8" height="4.05" rx="0.38" ry="0.38"/><rect class="cls-3" x="22.93" y="31.09" width="0.69" height="0.36"/><g class="cls-14"><rect class="cls-3" x="23.62" y="29.61" width="1.06" height="3.33" rx="0.53" ry="0.53"/><rect class="cls-12" x="23.62" y="31.18" width="1.06" height="0.06"/><rect class="cls-12" x="23.62" y="30.97" width="1.06" height="0.06"/><rect class="cls-12" x="23.62" y="30.77" width="1.06" height="0.06"/><rect class="cls-12" x="23.62" y="30.57" width="1.06" height="0.06"/><rect class="cls-12" x="23.62" y="30.37" width="1.06" height="0.06"/><rect class="cls-12" x="23.62" y="30.16" width="1.06" height="0.06"/><rect class="cls-12" x="23.62" y="29.96" width="1.06" height="0.06"/><rect class="cls-12" x="23.62" y="29.76" width="1.06" height="0.06"/><rect class="cls-12" x="23.62" y="32.6" width="1.06" height="0.06"/><rect class="cls-12" x="23.62" y="32.8" width="1.06" height="0.06"/><rect class="cls-12" x="23.62" y="32.4" width="1.06" height="0.06"/><rect class="cls-12" x="23.62" y="32.19" width="1.06" height="0.06"/><rect class="cls-12" x="23.62" y="31.99" width="1.06" height="0.06"/><rect class="cls-12" x="23.62" y="31.79" width="1.06" height="0.06"/><rect class="cls-12" x="23.62" y="31.58" width="1.06" height="0.06"/><rect class="cls-12" x="23.62" y="31.38" width="1.06" height="0.06"/></g><path class="cls-3" d="M27.58,11.21a.76.76,0,1,1,1.22-.91,1.2,1.2,0,1,1,1.95-1.41h0a1.21,1.21,0,0,1,1.43,1.95h0A.76.76,0,0,1,32,11.92c-.34.25-1.08-.17-1.08-.17s-.26.8-.68.85a.77.77,0,0,1-.85-.69A1,1,0,0,1,28.64,13a.92.92,0,0,1-1.06-.73h0a1,1,0,0,1-.9-.6,1.25,1.25,0,0,1,.9-.48Z"/></g></g></svg>