<svg xmlns="http://www.w3.org/2000/svg" viewBox="0 0 68.69 68.69"><defs><style>.cls-1{fill:#06f;}.cls-2{fill:#5f9df9;}.cls-3{fill:none;stroke:#fff;stroke-linecap:round;stroke-miterlimit:10;stroke-width:2.94px;}</style></defs><title>Asset 27</title><g id="Layer_2" data-name="Layer 2"><g id="Layer_1-2" data-name="Layer 1"><circle class="cls-1" cx="34.34" cy="34.34" r="34.34"/><path class="cls-2" d="M34.34,68.69A34.35,34.35,0,0,1,34.34,0C23.19,24.06,28,35.87,34.34,68.69Z"/><line class="cls-3" x1="35.66" y1="14.35" x2="35.66" y2="57.83"/><line class="cls-3" x1="26.4" y1="19.25" x2="35.85" y2="28.7"/><line class="cls-3" x1="45.14" y1="19.25" x2="35.69" y2="28.7"/><line class="cls-3" x1="44.91" y1="53.16" x2="35.46" y2="43.71"/><line class="cls-3" x1="26.18" y1="53.16" x2="35.62" y2="43.71"/><line class="cls-3" x1="32.17" y1="17.75" x2="35.57" y2="21.15"/><line class="cls-3" x1="38.91" y1="17.75" x2="35.51" y2="21.15"/><line class="cls-3" x1="38.91" y1="54.21" x2="35.51" y2="50.81"/><line class="cls-3" x1="32.17" y1="54.21" x2="35.57" y2="50.81"/><line class="cls-3" x1="57.4" y1="36.09" x2="13.92" y2="36.09"/><line class="cls-3" x1="52.5" y1="26.84" x2="43.05" y2="36.29"/><line class="cls-3" x1="52.5" y1="45.57" x2="43.05" y2="36.12"/><line class="cls-3" x1="18.59" y1="45.35" x2="28.04" y2="35.9"/><line class="cls-3" x1="18.59" y1="26.61" x2="28.04" y2="36.06"/><line class="cls-3" x1="54" y1="32.61" x2="50.6" y2="36.01"/><line class="cls-3" x1="54" y1="39.35" x2="50.6" y2="35.95"/><line class="cls-3" x1="17.54" y1="39.35" x2="20.94" y2="35.95"/><line class="cls-3" x1="17.54" y1="32.61" x2="20.94" y2="36.01"/></g></g></svg>