<svg xmlns="http://www.w3.org/2000/svg" viewBox="0 0 16.33 21.42"><defs><style>.cls-1,.cls-2{fill:#fff;}.cls-2{stroke:#18303a;stroke-miterlimit:10;stroke-width:0.25px;}.cls-3{fill:#e0e0e0;}</style></defs><title>active_delete</title><g id="Layer_2" data-name="Layer 2"><g id="Layer_1-2" data-name="Layer 1"><path class="cls-1" d="M1.58,4.92H14.75a0,0,0,0,1,0,0V19.86a1.56,1.56,0,0,1-1.56,1.56h-10a1.56,1.56,0,0,1-1.56-1.56V4.92A0,0,0,0,1,1.58,4.92Z"/><path class="cls-2" d="M1.66,1.75h13a1.53,1.53,0,0,1,1.53,1.53V4.92a0,0,0,0,1,0,0H.13a0,0,0,0,1,0,0V3.28A1.53,1.53,0,0,1,1.66,1.75Z"/><path class="cls-1" d="M9.94,3.17H6.39V1.77A1.78,1.78,0,0,1,8.17,0h0A1.77,1.77,0,0,1,9.94,1.77ZM9.29,1.7A1.13,1.13,0,0,0,8.17.58h0A1.12,1.12,0,0,0,7.05,1.7v.88H9.29Z"/><rect class="cls-3" x="3.63" y="6.59" width="0.63" height="13.14"/><rect class="cls-3" x="7.85" y="6.59" width="0.63" height="13.14"/><rect class="cls-3" x="12.08" y="6.59" width="0.63" height="13.14"/></g></g></svg>