<?xml version="1.0" encoding="utf-8"?>
<!-- Generator: Adobe Illustrator 22.1.0, SVG Export Plug-In . SVG Version: 6.00 Build 0)  -->
<svg version="1.1" id="Layer_1" xmlns="http://www.w3.org/2000/svg" xmlns:xlink="http://www.w3.org/1999/xlink" x="0px" y="0px"
	 viewBox="0 0 10.6 6.5" style="enable-background:new 0 0 10.6 6.5;" xml:space="preserve">
<style type="text/css">
	.st0{fill:#020202;}
</style>
<title>Down Card list</title>
<g id="Layer_2_1_">
</g>
<g id="Layer_1-2">
	<path class="st0" d="M8.6,0.4L5.4,3.6L2.1,0.4C1.7-0.1,0.9-0.1,0.4,0.3C-0.1,0.7-0.1,1.5,0.3,2c0,0,0.1,0.1,0.1,0.1l4.1,4.1
		C4.7,6.4,5,6.5,5.4,6.5c0.3,0,0.6-0.1,0.8-0.3l4.1-4.1c0.5-0.5,0.5-1.2,0-1.7c0,0,0,0,0,0C9.8-0.1,9-0.1,8.6,0.4L8.6,0.4z"/>
</g>
</svg>
