<?xml version="1.0" encoding="utf-8"?>
<!-- Generator: Adobe Illustrator 22.1.0, SVG Export Plug-In . SVG Version: 6.00 Build 0)  -->
<svg version="1.1" id="Layer_1" xmlns="http://www.w3.org/2000/svg" xmlns:xlink="http://www.w3.org/1999/xlink" x="0px" y="0px"
	 viewBox="0 0 35 36" style="enable-background:new 0 0 35 36;" xml:space="preserve">
<style type="text/css">
	.st0{fill:#282828;}
	.st1{clip-path:url(#SVGID_2_);fill:#0066FF;}
	.st2{clip-path:url(#SVGID_2_);}
	.st3{fill:#0066FF;stroke:#FFFFFF;stroke-width:0.2824;stroke-linecap:round;stroke-linejoin:round;stroke-miterlimit:10;}
	.st4{fill:#FFFFFF;}
	.st5{font-family:'MyriadPro-Regular';}
	.st6{font-size:6.3487px;}
</style>
<g>
	<path class="st0" d="M34.7,17.8c0-9.5-7.7-17.2-17.2-17.2S0.3,8.3,0.3,17.8v0C0.3,27.3,8,35,17.5,35S34.7,27.3,34.7,17.8L34.7,17.8
		z"/>
</g>
<g>
	<defs>
		<path id="SVGID_1_" d="M34.7,17.8c0-9.5-7.7-17.2-17.2-17.2S0.3,8.3,0.3,17.8v0C0.3,27.3,8,35,17.5,35S34.7,27.3,34.7,17.8
			L34.7,17.8z"/>
	</defs>
	<clipPath id="SVGID_2_">
		<use xlink:href="#SVGID_1_"  style="overflow:visible;"/>
	</clipPath>
	<polygon class="st1" points="14.9,38.5 5.5,38.5 5.5,18.3 14.9,18.3 14.9,24.2 13.5,25 13.5,28.2 14.9,28.2 	"/>
	<g class="st2">
		
			<image style="overflow:visible;opacity:0.15;" width="39" height="34" xlink:href="B4C8AEA9.png"  transform="matrix(1 0 0 1 -9.054 -1.054)">
		</image>
		<g>
			<path d="M16.6,19.5L16.6,19.5c-4.3-0.8-8.7-0.8-13,0l0,0v-2.8c0-0.1,0.1-0.3,0.2-0.4l6-4.5c0.2-0.1,0.4-0.1,0.5,0l6,4.5
				c0.1,0.1,0.2,0.2,0.2,0.4V19.5z"/>
		</g>
	</g>
	<g class="st2">
		<path class="st3" d="M15.3,22.7c-2.5,0-4.8-1.9-5-4.4c-0.3-2.9,2-5.3,4.8-5.3h0c0-2.7,2.2-4.9,4.9-4.9s4.9,2.2,4.9,4.9h0
			c1.9,0,3.7,1,4.4,2.8c1.5,3.5-1.1,6.9-4.4,6.9h-3c-0.1,0-1.2,2-3.3,3.2c-1.3,0.7-4.2,1-4.2,1l1.6-1c1.1-0.7,1.6-1.9,1.4-3.2v0
			L15.3,22.7z"/>
	</g>
	<g class="st2">
		<text transform="matrix(1 0 0 1 15.4028 19.0571)" class="st4 st5 st6">CO</text>
		<text transform="matrix(0.583 0 0 0.583 23.459 21.1714)" class="st4 st5 st6">2</text>
	</g>
</g>
</svg>
