<svg xmlns="http://www.w3.org/2000/svg" viewBox="0 0 38.14 38.14"><defs><style>.cls-1{fill:#fff;}.cls-2{fill:#ccc;}</style></defs><title>collapse card</title><g id="Layer_2" data-name="Layer 2"><g id="Layer_1-2" data-name="Layer 1"><rect class="cls-1" width="38.14" height="38.14" rx="19.07" ry="19.07" transform="translate(-7.9 19.07) rotate(-45)"/><path class="cls-2" d="M18.66,27.56V21.11a1.12,1.12,0,1,0-2.24,0v6.45a1.12,1.12,0,0,0,2.24,0"/><path class="cls-2" d="M11.1,22.23h6.44a1.12,1.12,0,0,0,0-2.24H11.1a1.12,1.12,0,1,0,0,2.24"/><path class="cls-2" d="M19.48,11.31v6.44a1.12,1.12,0,1,0,2.24,0V11.31a1.12,1.12,0,1,0-2.24,0"/><path class="cls-2" d="M27.05,16.63H20.6a1.12,1.12,0,0,0,0,2.24h6.45a1.12,1.12,0,0,0,0-2.24"/></g></g></svg>