<svg xmlns="http://www.w3.org/2000/svg" viewBox="0 0 23.45 23.45"><defs><style>.cls-1{fill:#020202;}.cls-2{fill:#fff;}</style></defs><title>Expand card</title><g id="Layer_2" data-name="Layer 2"><g id="Layer_1-2" data-name="Layer 1"><rect class="cls-1" width="23.45" height="23.45" rx="11.73" ry="11.73" transform="translate(-4.86 11.73) rotate(-45)"/><path class="cls-2" d="M6.13,13v4a.69.69,0,0,0,1.38,0V13a.69.69,0,0,0-1.38,0"/><path class="cls-2" d="M10.78,16.25h-4a.69.69,0,0,0,0,1.38h4a.69.69,0,0,0,0-1.38"/><path class="cls-2" d="M17.32,10.91V7a.69.69,0,0,0-1.38,0v4a.69.69,0,0,0,1.38,0"/><path class="cls-2" d="M12.67,7.64h4a.69.69,0,1,0,0-1.38h-4a.69.69,0,0,0,0,1.38"/></g></g></svg>