<?xml version="1.0" encoding="utf-8"?>
<!-- Generator: Adobe Illustrator 22.1.0, SVG Export Plug-In . SVG Version: 6.00 Build 0)  -->
<svg version="1.1" id="Layer_1" xmlns="http://www.w3.org/2000/svg" xmlns:xlink="http://www.w3.org/1999/xlink" x="0px" y="0px"
	 viewBox="0 0 15 8" style="enable-background:new 0 0 15 8;" xml:space="preserve">
<style type="text/css">
	.st0{fill:#CCCCCC;}
</style>
<g>
	<g>
		<path class="st0" d="M10.3,1.4l2.2,2.2l-2.2,2.2c-0.3,0.3-0.3,0.8,0,1.1c0.3,0.3,0.8,0.3,1.1,0l2.8-2.8c0.1-0.1,0.2-0.4,0.2-0.6
			c0-0.2-0.1-0.4-0.2-0.6l-2.8-2.8c-0.3-0.3-0.8-0.3-1.1,0C10,0.5,10,1.1,10.3,1.4L10.3,1.4z"/>
	</g>
</g>
<g>
	<g>
		<path class="st0" d="M4.7,5.8L2.5,3.6l2.2-2.2C5,1.1,5,0.5,4.7,0.2c-0.3-0.3-0.8-0.3-1.1,0L0.8,3C0.6,3.2,0.5,3.4,0.5,3.6
			c0,0.2,0.1,0.4,0.2,0.6l2.8,2.8c0.3,0.3,0.8,0.3,1.1,0C5,6.6,5,6.1,4.7,5.8L4.7,5.8z"/>
	</g>
</g>
</svg>
