<?xml version="1.0" encoding="utf-8"?>
<!-- Generator: Adobe Illustrator 22.1.0, SVG Export Plug-In . SVG Version: 6.00 Build 0)  -->
<svg version="1.1" id="Layer_1" xmlns="http://www.w3.org/2000/svg" xmlns:xlink="http://www.w3.org/1999/xlink" x="0px" y="0px"
	 viewBox="0 0 24 31" style="enable-background:new 0 0 24 31;" xml:space="preserve">
<style type="text/css">
	.st0{fill:#FFFFFF;}
</style>
<g>
	<g>
		<path class="st0" d="M23.1,11.3c0,6-4.9,10.9-10.9,10.9S1.2,17.4,1.2,11.3S6.1,0.4,12.1,0.4S23.1,5.3,23.1,11.3z M14.8,21.8v-9.1
			c0-0.4,0.3-0.6,0.6-0.6h0.2c0.4,0,0.6,0.3,0.6,0.6c0,0.4-0.3,0.6-0.6,0.6H8.7c-0.4,0-0.6-0.3-0.6-0.6c0-0.4,0.3-0.6,0.6-0.6h0.2
			c0.4,0,0.6,0.3,0.6,0.6v9.1H10l0-9.1c0-0.6-0.5-1.1-1.1-1.1H8.7c-0.6,0-1.1,0.5-1.1,1.1c0,0.6,0.5,1.1,1.1,1.1h6.9
			c0.6,0,1.1-0.5,1.1-1.1c0-0.6-0.5-1.1-1.1-1.1h-0.2c-0.6,0-1.1,0.5-1.1,1.1v9.1H14.8z"/>
	</g>
	<g>
		<path class="st0" d="M12.1,30.8L12.1,30.8c-1.3,0-2.4-1.1-2.4-2.4v-1.8c0-0.2,0.2-0.4,0.4-0.4h3.9c0.2,0,0.4,0.2,0.4,0.4v1.8
			C14.6,29.7,13.5,30.8,12.1,30.8z"/>
	</g>
	<g>
		<path class="st0" d="M14,25.8h-3.7c-0.3,0-0.5-0.2-0.5-0.5s0.2-0.5,0.5-0.5H14c0.3,0,0.5,0.2,0.5,0.5S14.3,25.8,14,25.8z"/>
	</g>
	<g>
		<path class="st0" d="M14,24.2h-3.7c-0.3,0-0.5-0.2-0.5-0.5c0-0.3,0.2-0.5,0.5-0.5H14c0.3,0,0.5,0.2,0.5,0.5
			C14.6,24,14.3,24.2,14,24.2z"/>
	</g>
</g>
</svg>
