<?xml version="1.0" encoding="utf-8"?>
<!-- Generator: Adobe Illustrator 22.1.0, SVG Export Plug-In . SVG Version: 6.00 Build 0)  -->
<svg version="1.1" id="Layer_1" xmlns="http://www.w3.org/2000/svg" xmlns:xlink="http://www.w3.org/1999/xlink" x="0px" y="0px"
	 viewBox="0 0 34 43" style="enable-background:new 0 0 34 43;" xml:space="preserve">
<style type="text/css">
	.st0{fill:#9A9A9A;}
	.st1{fill:#101416;}
	.st2{fill:#FFFFFF;}
	.st3{fill:#9A9A9A;stroke:#9A9A9A;stroke-width:1.657;stroke-linecap:round;stroke-miterlimit:10;}
	.st4{fill:none;stroke:#9A9A9A;stroke-width:1.657;stroke-linecap:round;stroke-miterlimit:10;}
</style>
<g>
	<circle class="st0" cx="17.2" cy="22.3" r="10.9"/>
	<g>
		<path class="st1" d="M19.8,33.7V23.4c0-0.4,0.3-0.6,0.6-0.6h0.2c0.4,0,0.6,0.3,0.6,0.6c0,0.4-0.3,0.6-0.6,0.6h-6.9
			c-0.4,0-0.6-0.3-0.6-0.6c0-0.4,0.3-0.6,0.6-0.6H14c0.4,0,0.6,0.3,0.6,0.6v10.3H15l0-10.3c0-0.6-0.5-1.1-1.1-1.1h-0.2
			c-0.6,0-1.1,0.5-1.1,1.1c0,0.6,0.5,1.1,1.1,1.1h6.9c0.6,0,1.1-0.5,1.1-1.1c0-0.6-0.5-1.1-1.1-1.1h-0.2c-0.6,0-1.1,0.5-1.1,1.1
			v10.3H19.8L19.8,33.7z"/>
		<g>
			<path d="M20.7,22.3h-0.2c-0.6,0-1.1,0.5-1.1,1.1V24h0.4v-0.6c0-0.4,0.3-0.6,0.6-0.6h0.2c0.4,0,0.6,0.3,0.6,0.6
				c0,0.4-0.3,0.6-0.6,0.6h-0.8v0.4h0.8c0.6,0,1.1-0.5,1.1-1.1C21.7,22.8,21.3,22.3,20.7,22.3L20.7,22.3z M14,22.3h-0.2
				c-0.6,0-1.1,0.5-1.1,1.1c0,0.6,0.5,1.1,1.1,1.1h0.8V24h-0.8c-0.4,0-0.6-0.3-0.6-0.6c0-0.4,0.3-0.6,0.6-0.6H14
				c0.4,0,0.6,0.3,0.6,0.6V24H15v-0.6C15,22.8,14.6,22.3,14,22.3L14,22.3z M19.4,24H15v0.4h4.4V24L19.4,24z M19.8,24.5h-0.4v9.2h0.4
				V24.5L19.8,24.5z M15,24.5h-0.4v9.2H15V24.5L15,24.5z M19.8,33.7L19.8,33.7L19.8,33.7L19.8,33.7z"/>
		</g>
	</g>
	<g>
		<path class="st2" d="M17.2,41.8L17.2,41.8c-1.3,0-2.4-1.1-2.4-2.4v-1.8c0-0.2,0.2-0.4,0.4-0.4h3.9c0.2,0,0.4,0.2,0.4,0.4v1.8
			C19.6,40.7,18.6,41.8,17.2,41.8z"/>
	</g>
	<g>
		<path class="st2" d="M19.1,36.8h-3.7c-0.3,0-0.5-0.2-0.5-0.5s0.2-0.5,0.5-0.5h3.7c0.3,0,0.5,0.2,0.5,0.5S19.4,36.8,19.1,36.8z"/>
	</g>
	<g>
		<path class="st2" d="M19.1,35.2h-3.7c-0.3,0-0.5-0.2-0.5-0.5s0.2-0.5,0.5-0.5h3.7c0.3,0,0.5,0.2,0.5,0.5S19.4,35.2,19.1,35.2z"/>
	</g>
</g>
<line class="st3" x1="16.6" y1="2.4" x2="16.6" y2="7.5"/>
<line class="st4" x1="3.4" y1="12.9" x2="1.6" y2="11.1"/>
<line class="st4" x1="31.5" y1="11.1" x2="29.7" y2="12.9"/>
</svg>
