<?xml version="1.0" encoding="utf-8"?>
<!-- Generator: Adobe Illustrator 22.1.0, SVG Export Plug-In . SVG Version: 6.00 Build 0)  -->
<svg version="1.1" id="Layer_1" xmlns="http://www.w3.org/2000/svg" xmlns:xlink="http://www.w3.org/1999/xlink" x="0px" y="0px"
	 viewBox="0 0 47 44" style="enable-background:new 0 0 47 44;" xml:space="preserve">
<style type="text/css">
	.st0{fill:#F58220;}
	.st1{fill:#101416;}
	.st2{fill:#FFFFFF;}
	.st3{fill:none;stroke:#F58220;stroke-width:1.657;stroke-linecap:round;stroke-miterlimit:10;}
</style>
<g>
	<g>
		<image style="overflow:visible;" width="90" height="90" xlink:href="D4218850.png"  transform="matrix(1 0 0 1 -22 -22)">
		</image>
	</g>
	<g>
		<circle class="st0" cx="23.2" cy="23.3" r="10.9"/>
		<g>
			<path class="st1" d="M25.8,34.7V24.4c0-0.4,0.3-0.6,0.6-0.6h0.2c0.4,0,0.6,0.3,0.6,0.6c0,0.4-0.3,0.6-0.6,0.6h-6.9
				c-0.4,0-0.6-0.3-0.6-0.6c0-0.4,0.3-0.6,0.6-0.6H20c0.4,0,0.6,0.3,0.6,0.6v10.3H21l0-10.3c0-0.6-0.5-1.1-1.1-1.1h-0.2
				c-0.6,0-1.1,0.5-1.1,1.1c0,0.6,0.5,1.1,1.1,1.1h6.9c0.6,0,1.1-0.5,1.1-1.1c0-0.6-0.5-1.1-1.1-1.1h-0.2c-0.6,0-1.1,0.5-1.1,1.1
				v10.3H25.8L25.8,34.7z"/>
			<g>
				<path d="M26.7,23.3h-0.2c-0.6,0-1.1,0.5-1.1,1.1V25h0.4v-0.6c0-0.4,0.3-0.6,0.6-0.6h0.2c0.4,0,0.6,0.3,0.6,0.6
					c0,0.4-0.3,0.6-0.6,0.6h-0.8v0.4h0.8c0.6,0,1.1-0.5,1.1-1.1C27.7,23.8,27.3,23.3,26.7,23.3L26.7,23.3z M20,23.3h-0.2
					c-0.6,0-1.1,0.5-1.1,1.1c0,0.6,0.5,1.1,1.1,1.1h0.8V25h-0.8c-0.4,0-0.6-0.3-0.6-0.6c0-0.4,0.3-0.6,0.6-0.6H20
					c0.4,0,0.6,0.3,0.6,0.6V25H21v-0.6C21,23.8,20.6,23.3,20,23.3L20,23.3z M25.4,25H21v0.4h4.4V25L25.4,25z M25.8,25.5h-0.4v9.2
					h0.4V25.5L25.8,25.5z M21,25.5h-0.4v9.2H21V25.5L21,25.5z M25.8,34.7L25.8,34.7L25.8,34.7L25.8,34.7z"/>
			</g>
		</g>
		<g>
			<path class="st2" d="M23.2,42.8L23.2,42.8c-1.3,0-2.4-1.1-2.4-2.4v-1.8c0-0.2,0.2-0.4,0.4-0.4h3.9c0.2,0,0.4,0.2,0.4,0.4v1.8
				C25.6,41.7,24.6,42.8,23.2,42.8z"/>
		</g>
		<g>
			<path class="st2" d="M25.1,37.8h-3.7c-0.3,0-0.5-0.2-0.5-0.5s0.2-0.5,0.5-0.5h3.7c0.3,0,0.5,0.2,0.5,0.5S25.4,37.8,25.1,37.8z"/>
		</g>
		<g>
			<path class="st2" d="M25.1,36.2h-3.7c-0.3,0-0.5-0.2-0.5-0.5s0.2-0.5,0.5-0.5h3.7c0.3,0,0.5,0.2,0.5,0.5S25.4,36.2,25.1,36.2z"/>
		</g>
	</g>
	<line class="st3" x1="22.6" y1="3.4" x2="22.6" y2="8.5"/>
	<line class="st3" x1="43.7" y1="27.1" x2="38.7" y2="27.1"/>
	<line class="st3" x1="7.3" y1="27.1" x2="2.2" y2="27.1"/>
	<line class="st3" x1="9.4" y1="13.9" x2="7.6" y2="12.1"/>
	<line class="st3" x1="37.5" y1="12.1" x2="35.7" y2="13.9"/>
</g>
</svg>
