<svg xmlns="http://www.w3.org/2000/svg" viewBox="0 0 62.85 21.09"><defs><style>.cls-1{fill:#06f;opacity:0.9;}.cls-2{fill:#424243;}</style></defs><title>Asset 5</title><g id="Layer_2" data-name="Layer 2"><g id="Layer_1-2" data-name="Layer 1"><path class="cls-1" d="M2.21,0A2.13,2.13,0,0,0,.65.65,2.13,2.13,0,0,0,0,2.21,2.27,2.27,0,0,0,.65,3.84a2.16,2.16,0,0,0,1.58.66,2.09,2.09,0,0,0,1.55-.65,2.2,2.2,0,0,0,.65-1.59A2.19,2.19,0,0,0,3.77.66,2.1,2.1,0,0,0,2.21,0Z"/><path class="cls-1" d="M62.6,17.5a2.14,2.14,0,0,0-1.3-1.11,2.17,2.17,0,0,0-1.73.12,2.18,2.18,0,0,0-1,3,2.16,2.16,0,0,0,1.28,1.11,2.22,2.22,0,0,0,1.75-.12,2.13,2.13,0,0,0,1.13-1.29A2.08,2.08,0,0,0,62.6,17.5Z"/><rect class="cls-2" x="0.52" y="6.98" width="3.45" height="13.79" rx="0.72" ry="0.72"/><path class="cls-2" d="M18.93,7H17a.67.67,0,0,0-.66.4L13,15.08,9.71,7.39A.7.7,0,0,0,9,7h-2a.69.69,0,0,0-.66,1l5.37,12.58a.39.39,0,0,0,.38.25h1.7a.42.42,0,0,0,.38-.27L19.6,8A.7.7,0,0,0,18.93,7Z"/><path class="cls-2" d="M24.43,7h-2c-.4,0-1,.24-1,.64V20c0,.39.56.75,1,.75h2c.39,0,.91-.36.91-.75V7.62C25.34,7.22,24.82,7,24.43,7Z"/><path class="cls-2" d="M39.78,7h-2a.67.67,0,0,0-.66.4l-3.3,7.7L30.55,7.39A.7.7,0,0,0,29.88,7h-2a.69.69,0,0,0-.66,1l5.37,12.58a.39.39,0,0,0,.38.25h1.7a.42.42,0,0,0,.38-.27L40.44,8A.7.7,0,0,0,39.78,7Z"/><path class="cls-2" d="M55,7H53a.83.83,0,0,0-.82.74v.7A4.64,4.64,0,0,0,50.31,7,5.69,5.69,0,0,0,48,6.54a6,6,0,0,0-4.58,2.05,7.41,7.41,0,0,0-1.88,5.25,7.23,7.23,0,0,0,2,5.17,6.14,6.14,0,0,0,4.64,2.08,5.26,5.26,0,0,0,2.11-.42,4.62,4.62,0,0,0,1.94-1.39v.82a.78.78,0,0,0,.82.67h2c.39,0,1.12-.27,1.12-.67V7.72C56.13,7.32,55.4,7,55,7ZM51.5,16.77a3.56,3.56,0,0,1-2.71,1.14,3.5,3.5,0,0,1-2.67-1.15,4.18,4.18,0,0,1-1.08-3,4.11,4.11,0,0,1,1.06-2.92,3.5,3.5,0,0,1,2.68-1.13,3.61,3.61,0,0,1,2.72,1.11,4.06,4.06,0,0,1,1.08,2.93A4.13,4.13,0,0,1,51.5,16.77Z"/></g></g></svg>