<svg xmlns="http://www.w3.org/2000/svg" viewBox="0 0 119.32 86.7"><defs><style>.cls-1{fill:#7000cb;}.cls-2{fill:#06f;stroke-width:3.45px;}.cls-2,.cls-3{stroke:#7000cb;}.cls-2,.cls-3,.cls-5{stroke-miterlimit:10;}.cls-3{fill:#f58220;stroke-width:4.99px;}.cls-4{fill:#fff;}.cls-5{fill:none;stroke:#ccc;stroke-width:0.5px;}</style></defs><title>Asset 39</title><g id="Layer_2" data-name="Layer 2"><g id="Layer_1-2" data-name="Layer 1"><path class="cls-1" d="M21.28,0H34.55L51.14,49.91,67.88,0H81.14l6.4,39.35h-13l-2.2-13L57.1,71.56h-12L30,26.37,22.17,71.56H8.89Z"/><rect class="cls-2" x="1.73" y="58.14" width="26.83" height="26.83" rx="13.41" ry="13.41"/><rect class="cls-3" x="72.63" y="30.67" width="44.2" height="44.2" rx="22.1" ry="22.1"/><path class="cls-4" d="M91.57,45.42l11.09,5.82a1.72,1.72,0,0,1,0,3L91.57,60.12A1.73,1.73,0,0,1,89,58.59V46.94A1.72,1.72,0,0,1,91.57,45.42Z"/><polyline class="cls-5" points="18.24 56.4 26.24 7.4 30.91 7.4 48.21 65.4 52.91 65.4 72.63 7.4 77.57 7.4 82.6 34.3"/></g></g></svg>