<svg xmlns="http://www.w3.org/2000/svg" xmlns:xlink="http://www.w3.org/1999/xlink" viewBox="0 0 60.38 60.38"><defs><style>.cls-1,.cls-10,.cls-6,.cls-7,.cls-8,.cls-9{fill:none;}.cls-2{fill:#101416;}.cls-3{fill:#5f9df9;}.cls-4{clip-path:url(#clip-path);}.cls-5{fill:#06f;}.cls-10,.cls-6,.cls-7,.cls-8,.cls-9{stroke:#fff;stroke-miterlimit:10;}.cls-6{stroke-width:0.38px;}.cls-7{stroke-width:0.75px;}.cls-8{stroke-width:0.23px;}.cls-9{stroke-width:0.24px;}.cls-10{stroke-width:0.19px;}.cls-11{fill:#fff;}.cls-12{fill:#4077ad;}.cls-13{fill:#4e8dd8;}.cls-14{clip-path:url(#clip-path-2);}</style><clipPath id="clip-path"><circle class="cls-1" cx="27.83" cy="27.28" r="9.75"/></clipPath><clipPath id="clip-path-2"><rect class="cls-1" x="31.37" y="39.33" width="1.41" height="4.43" rx="0.7" ry="0.7"/></clipPath></defs><title>Asset 34</title><g id="Layer_2" data-name="Layer 2"><g id="Layer_1-2" data-name="Layer 1"><rect class="cls-2" width="60.38" height="60.38" rx="11.59" ry="11.59"/><polygon class="cls-3" points="35.44 21.66 33.92 21.66 33.92 14.22 35.44 15.08 35.44 15.46 35.2 15.46 35.2 15.63 35.44 15.74 35.44 21.66"/><circle class="cls-3" cx="27.83" cy="27.28" r="10.85"/><g class="cls-4"><circle class="cls-5" cx="27.83" cy="27.28" r="9.75"/><line class="cls-6" x1="27.83" y1="17.53" x2="27.83" y2="20.55"/><line class="cls-7" x1="37.58" y1="27.28" x2="34.57" y2="27.28"/><line class="cls-8" x1="19.59" y1="19.04" x2="22.14" y2="21.59"/><line class="cls-7" x1="33.53" y1="32.97" x2="36.08" y2="35.52"/><line class="cls-6" x1="36.08" y1="19.04" x2="33.53" y2="21.59"/><line class="cls-9" x1="16.3" y1="22.28" x2="19.87" y2="23.83"/><line class="cls-7" x1="35.8" y1="30.73" x2="39.37" y2="32.27"/><line class="cls-6" x1="32.83" y1="15.74" x2="31.28" y2="19.31"/><line class="cls-10" x1="23.98" y1="18.33" x2="25.17" y2="21.1"/><line class="cls-6" x1="36.79" y1="23.42" x2="34.02" y2="24.61"/><polygon class="cls-11" points="26.18 27.7 27.84 21.09 29.49 27.7 26.18 27.7"/><circle class="cls-11" cx="27.83" cy="27.7" r="1.65"/></g><path class="cls-12" d="M30.46,44.47A2.64,2.64,0,0,1,30,46.12V44.47Z"/><path class="cls-12" d="M25.42,44.47a2.64,2.64,0,0,0,.42,1.65V44.47Z"/><path class="cls-3" d="M25.83,37.42H30a0,0,0,0,1,0,0v9.71a2.1,2.1,0,0,1-2.1,2.1h0a2.1,2.1,0,0,1-2.1-2.1V37.42a0,0,0,0,1,0,0Z"/><rect class="cls-13" x="25.41" y="39.6" width="5.04" height="5.37" rx="0.51" ry="0.51"/><rect class="cls-3" x="30.46" y="41.3" width="0.91" height="0.48"/><g class="cls-14"><rect class="cls-3" x="31.37" y="39.33" width="1.41" height="4.43" rx="0.7" ry="0.7"/><rect class="cls-12" x="31.37" y="41.41" width="1.41" height="0.08"/><rect class="cls-12" x="31.37" y="41.14" width="1.41" height="0.08"/><rect class="cls-12" x="31.37" y="40.87" width="1.41" height="0.08"/><rect class="cls-12" x="31.37" y="40.61" width="1.41" height="0.08"/><rect class="cls-12" x="31.37" y="40.34" width="1.41" height="0.08"/><rect class="cls-12" x="31.37" y="40.07" width="1.41" height="0.08"/><rect class="cls-12" x="31.37" y="39.8" width="1.41" height="0.08"/><rect class="cls-12" x="31.37" y="39.53" width="1.41" height="0.08"/><rect class="cls-12" x="31.37" y="43.3" width="1.41" height="0.08"/><rect class="cls-12" x="31.37" y="43.57" width="1.41" height="0.08"/><rect class="cls-12" x="31.37" y="43.03" width="1.41" height="0.08"/><rect class="cls-12" x="31.37" y="42.76" width="1.41" height="0.08"/><rect class="cls-12" x="31.37" y="42.49" width="1.41" height="0.08"/><rect class="cls-12" x="31.37" y="42.22" width="1.41" height="0.08"/><rect class="cls-12" x="31.37" y="41.95" width="1.41" height="0.08"/><rect class="cls-12" x="31.37" y="41.68" width="1.41" height="0.08"/></g><path class="cls-3" d="M36.63,14.89a1,1,0,1,1,1.63-1.21,1.6,1.6,0,0,1,2.59-1.87h0a1.61,1.61,0,0,1,1.9,2.59h0a1,1,0,0,1-.23,1.44c-.46.33-1.43-.23-1.43-.23s-.35,1.07-.91,1.12a1,1,0,0,1-1.13-.91,1.3,1.3,0,0,1-1,1.47,1.19,1.19,0,0,1-1.4-1h0a1.37,1.37,0,0,1-1.2-.8,1.64,1.64,0,0,1,1.19-.64Z"/></g></g></svg>