<?xml version="1.0" encoding="utf-8"?>
<!-- Generator: Adobe Illustrator 22.1.0, SVG Export Plug-In . SVG Version: 6.00 Build 0)  -->
<svg version="1.1" id="Layer_1" xmlns="http://www.w3.org/2000/svg" xmlns:xlink="http://www.w3.org/1999/xlink" x="0px" y="0px"
	 viewBox="0 0 23.3 12.2" style="enable-background:new 0 0 23.3 12.2;" xml:space="preserve">
<style type="text/css">
	.st0{fill:#FFFFFF;}
	.st1{opacity:0.6;fill:#FFFFFF;enable-background:new    ;}
	.st2{opacity:0.4;fill:#FFFFFF;enable-background:new    ;}
</style>
<title>Asset 20</title>
<g id="Layer_2_1_">
</g>
<path class="st0" d="M7.8,7.9C7.4,7.4,7.1,6.8,7.1,6.1c0-0.8,0.3-1.5,0.8-2C8,4,8,3.7,7.9,3.6c0,0,0,0,0,0c-0.1-0.1-0.4-0.1-0.5,0
	c0,0,0,0,0,0c-0.7,0.7-1.1,1.6-1,2.6c0,0.8,0.4,1.6,0.9,2.2c0.1,0.1,0.4,0.1,0.5,0S7.9,8,7.8,7.9L7.8,7.9L7.8,7.9z"/>
<path class="st1" d="M5.7,9.7C4.8,8.8,4.3,7.5,4.3,6.2C4.2,4.8,4.8,3.4,5.8,2.4C5.9,2.2,5.9,2,5.8,1.9c-0.1-0.1-0.3-0.1-0.4,0
	C4.1,3,3.5,4.6,3.5,6.3c0.1,1.5,0.7,2.9,1.7,3.9c0.2,0.1,0.4,0.1,0.5,0C5.8,10,5.8,9.9,5.7,9.7L5.7,9.7z"/>
<path class="st2" d="M3.2,11.2c-1.3-1.3-2-3-2.1-4.8C1,4.4,1.8,2.4,3.3,1c0.1-0.2,0.1-0.4-0.1-0.5c-0.1-0.1-0.3-0.1-0.4,0
	C1.2,2,0.3,4.2,0.4,6.4c0.1,2,0.9,3.9,2.3,5.3c0.1,0.1,0.4,0.1,0.5,0C3.3,11.5,3.3,11.3,3.2,11.2C3.2,11.2,3.2,11.2,3.2,11.2
	L3.2,11.2z"/>
<path class="st0" d="M15.5,3.9C16,4.4,16.3,5,16.3,5.7c0,0.8-0.3,1.5-0.8,2c-0.1,0.2-0.1,0.4,0.1,0.5c0.1,0.1,0.3,0.1,0.4,0
	c0.7-0.7,1-1.6,1-2.6c0-0.9-0.4-1.7-1-2.3c-0.1-0.1-0.4-0.1-0.5,0c0,0,0,0,0,0C15.3,3.5,15.3,3.7,15.5,3.9
	C15.5,3.8,15.5,3.9,15.5,3.9L15.5,3.9z"/>
<path class="st1" d="M17.6,2.1c0.9,0.9,1.4,2.2,1.5,3.5c0,1.4-0.5,2.8-1.6,3.8c-0.1,0.1-0.1,0.4,0,0.5c0,0,0,0,0,0
	c0.1,0.1,0.4,0.1,0.5,0c0,0,0,0,0,0c1.2-1.1,1.8-2.7,1.8-4.4c-0.1-1.5-0.7-2.9-1.7-3.9c-0.1-0.1-0.4-0.1-0.5,0S17.5,1.9,17.6,2.1
	L17.6,2.1z"/>
<path class="st2" d="M20.2,0.6c1.3,1.3,2,3,2.1,4.8c0.1,2-0.7,4-2.2,5.4c-0.1,0.1-0.1,0.4,0,0.5c0,0,0,0,0,0c0.1,0.1,0.4,0.1,0.5,0
	c0,0,0,0,0,0c1.6-1.5,2.5-3.7,2.4-5.9c-0.1-2-0.9-3.9-2.3-5.3c-0.1-0.1-0.4-0.1-0.5,0C20.1,0.2,20.1,0.5,20.2,0.6
	C20.2,0.6,20.2,0.6,20.2,0.6L20.2,0.6z"/>
<circle class="st0" cx="11.8" cy="5.9" r="2.1"/>
</svg>
