<svg xmlns="http://www.w3.org/2000/svg" viewBox="0 0 45.08 45.08"><defs><style>.cls-1{fill:#a3becd;}.cls-2{fill:#262f35;}.cls-3{fill:#5f9df9;}</style></defs><title>Asset 15</title><g id="Layer_2" data-name="Layer 2"><g id="Layer_1-2" data-name="Layer 1"><path class="cls-1" d="M22.54,0H45.08a0,0,0,0,1,0,0V22.54A22.54,22.54,0,0,1,22.54,45.08h0A22.54,22.54,0,0,1,0,22.54v0A22.54,22.54,0,0,1,22.54,0Z" transform="translate(45.08 0) rotate(90)"/><path class="cls-2" d="M26,23.81h4.12a0,0,0,0,1,0,0v5.81a2.06,2.06,0,0,1-2.06,2.06h0A2.06,2.06,0,0,1,26,29.62V23.81A0,0,0,0,1,26,23.81Z" transform="translate(-11.39 28) rotate(-45)"/><rect class="cls-3" x="12.57" y="12.73" width="17.01" height="17.01" rx="8.51" ry="8.51" transform="translate(-8.84 21.12) rotate(-45)"/></g></g></svg>