<svg xmlns="http://www.w3.org/2000/svg" viewBox="0 0 60.38 60.38"><defs><style>.cls-1{fill:#101416;}.cls-2{fill:#06f;}.cls-3{fill:#5f9df9;}.cls-4{fill:none;stroke:#fff;stroke-linecap:round;stroke-miterlimit:10;stroke-width:1.22px;}</style></defs><title>Asset 32</title><g id="Layer_2" data-name="Layer 2"><g id="Layer_1-2" data-name="Layer 1"><rect class="cls-1" width="60.38" height="60.38" rx="11.59" ry="11.59"/><circle class="cls-2" cx="30.19" cy="30.2" r="14.26"/><path class="cls-3" d="M30.19,44.46a14.26,14.26,0,0,1,0-28.52C25.55,25.93,27.55,30.84,30.19,44.46Z"/><line class="cls-4" x1="30.73" y1="21.9" x2="30.73" y2="39.96"/><line class="cls-4" x1="26.89" y1="23.93" x2="30.81" y2="27.86"/><line class="cls-4" x1="34.67" y1="23.93" x2="30.75" y2="27.86"/><line class="cls-4" x1="34.58" y1="38.02" x2="30.65" y2="34.09"/><line class="cls-4" x1="26.8" y1="38.02" x2="30.72" y2="34.09"/><line class="cls-4" x1="29.29" y1="23.31" x2="30.7" y2="24.72"/><line class="cls-4" x1="32.08" y1="23.31" x2="30.67" y2="24.72"/><line class="cls-4" x1="32.08" y1="38.45" x2="30.67" y2="37.04"/><line class="cls-4" x1="29.29" y1="38.45" x2="30.7" y2="37.04"/><line class="cls-4" x1="39.76" y1="30.93" x2="21.7" y2="30.93"/><line class="cls-4" x1="37.73" y1="27.09" x2="33.8" y2="31.01"/><line class="cls-4" x1="37.73" y1="34.86" x2="33.8" y2="30.94"/><line class="cls-4" x1="23.65" y1="34.77" x2="27.57" y2="30.85"/><line class="cls-4" x1="23.65" y1="26.99" x2="27.57" y2="30.91"/><line class="cls-4" x1="38.35" y1="29.48" x2="36.94" y2="30.89"/><line class="cls-4" x1="38.35" y1="32.28" x2="36.94" y2="30.87"/><line class="cls-4" x1="23.21" y1="32.28" x2="24.62" y2="30.87"/><line class="cls-4" x1="23.21" y1="29.48" x2="24.62" y2="30.89"/></g></g></svg>