<svg xmlns="http://www.w3.org/2000/svg" xmlns:xlink="http://www.w3.org/1999/xlink" viewBox="0 0 31.44 36.86"><defs><style>.cls-1{fill:none;}.cls-2{fill:#fff;opacity:0.81;}.cls-3{clip-path:url(#clip-path);}.cls-4{fill:#06f;}</style><clipPath id="clip-path"><path class="cls-1" d="M25.63,36.82H3.57A1.63,1.63,0,0,1,2,35.19V6.26A10.64,10.64,0,0,0,.55,1L0,0H29.21l-.56,1a10.74,10.74,0,0,0-1.39,5.28V24.61l-1.54.7-2-.64-1.21,1.41-2.48.86,2.42.44,1.3.85,2-.36,1.44.63v6.69A1.63,1.63,0,0,1,25.63,36.82Z"/></clipPath></defs><title>Asset 1</title><g id="Layer_2" data-name="Layer 2"><g id="Layer_1-2" data-name="Layer 1"><path class="cls-2" d="M25.63,36.82H3.57A1.63,1.63,0,0,1,2,35.19V6.26A10.64,10.64,0,0,0,.55,1L0,0H29.21l-.56,1a10.74,10.74,0,0,0-1.39,5.28V24.61l-1.54.7-2-.64-1.21,1.41-2.48.86,2.42.44,1.3.85,2-.36,1.44.63v6.69A1.63,1.63,0,0,1,25.63,36.82Z"/><g class="cls-3"><path class="cls-4" d="M24,34H5.33a1.68,1.68,0,0,1-1.68-1.67V13.92l1.79,1.5a45,45,0,0,0,17.08,9h0a1.41,1.41,0,0,1,1.05,1.37h0A1.43,1.43,0,0,0,24.25,27l.7.43a1.42,1.42,0,0,1,.69,1.22v3.67A1.68,1.68,0,0,1,24,34Z"/></g><path class="cls-4" d="M28.51,31a.36.36,0,0,1-.72,0,3.07,3.07,0,0,1,.36-.8A3.07,3.07,0,0,1,28.51,31Z"/><path class="cls-4" d="M29.94,30.88a.25.25,0,0,1-.25.25.26.26,0,0,1-.26-.25,2,2,0,0,1,.26-.55A2.06,2.06,0,0,1,29.94,30.88Z"/><path class="cls-4" d="M31.44,35.12a1.74,1.74,0,0,1-3.48,0c0-1,1.74-3.81,1.74-3.81S31.44,34.16,31.44,35.12Z"/><path class="cls-4" d="M29.42,28.52a.91.91,0,1,1-1.81,0,7.57,7.57,0,0,1,.9-2A7.53,7.53,0,0,1,29.42,28.52Z"/><polygon class="cls-4" points="21.23 26.84 22.6 26.39 23.87 25.33 25.7 26.24 27.04 25.13 28.51 26.53 28.51 27.78 27.66 28.24 25.77 27.4 23.9 27.95 22.56 27.05 21.23 26.84"/></g></g></svg>