<svg xmlns="http://www.w3.org/2000/svg" viewBox="0 0 234.47 187.52"><defs><style>.cls-1{font-size:24px;font-family:CenturyGothic, Century Gothic;}.cls-2{font-size:35px;font-family:CenturyGothic-Bold, Century Gothic;font-weight:700;}.cls-3{fill:#424242;}.cls-4{fill:#7000cb;}.cls-5{fill:#06f;stroke-width:3.45px;}.cls-5,.cls-6{stroke:#7000cb;}.cls-5,.cls-6,.cls-8{stroke-miterlimit:10;}.cls-6{fill:#f58220;stroke-width:4.99px;}.cls-7{fill:#fff;}.cls-8{fill:none;stroke:#ccc;stroke-width:0.5px;}</style></defs><title>Asset 44</title><g id="Layer_2" data-name="Layer 2"><g id="Layer_1-2" data-name="Layer 1"><text class="cls-1" transform="translate(0 134.79)">Welcome to <tspan class="cls-2"><tspan x="0" y="42">iviva </tspan><tspan class="cls-3" x="88.88" y="42">Smart</tspan><tspan class="cls-4" x="184.78" y="42">EM</tspan></tspan></text><path class="cls-4" d="M21.38,0H34.65L51.24,49.91,68,0H81.24l6.4,39.35h-13l-2.21-13L57.2,71.56h-12L30.13,26.37,22.27,71.56H9Z"/><rect class="cls-5" x="1.83" y="58.14" width="26.83" height="26.83" rx="13.41" ry="13.41"/><rect class="cls-6" x="72.73" y="30.67" width="44.2" height="44.2" rx="22.1" ry="22.1"/><path class="cls-7" d="M91.67,45.42l11.1,5.82a1.72,1.72,0,0,1,0,3l-11.1,5.83a1.73,1.73,0,0,1-2.53-1.53V46.94A1.72,1.72,0,0,1,91.67,45.42Z"/><polyline class="cls-8" points="18.34 56.4 26.34 7.4 31.01 7.4 48.31 65.4 53.01 65.4 72.73 7.4 77.67 7.4 82.7 34.3"/></g></g></svg>